<svg width="32" height="33" viewBox="0 0 32 33" fill="none" xmlns="http://www.w3.org/2000/svg">
<g clip-path="url(#clip0_1_425)">
<path d="M7.33334 23.1666C8.43791 23.1666 9.33334 22.2712 9.33334 21.1666C9.33334 20.0621 8.43791 19.1666 7.33334 19.1666C6.22877 19.1666 5.33334 20.0621 5.33334 21.1666C5.33334 22.2712 6.22877 23.1666 7.33334 23.1666Z" fill="#4F4F4F"/>
<path d="M25.3333 4.5H6.66667C4.89921 4.50212 3.20474 5.20518 1.95496 6.45496C0.705176 7.70474 0.00211714 9.39921 0 11.1667L0 21.8333C0.00211714 23.6008 0.705176 25.2953 1.95496 26.545C3.20474 27.7948 4.89921 28.4979 6.66667 28.5H25.3333C27.1008 28.4979 28.7953 27.7948 30.045 26.545C31.2948 25.2953 31.9979 23.6008 32 21.8333V11.1667C31.9979 9.39921 31.2948 7.70474 30.045 6.45496C28.7953 5.20518 27.1008 4.50212 25.3333 4.5ZM6.66667 7.16667H25.3333C26.3942 7.16667 27.4116 7.58809 28.1618 8.33824C28.9119 9.08838 29.3333 10.1058 29.3333 11.1667H2.66667C2.66667 10.1058 3.08809 9.08838 3.83824 8.33824C4.58838 7.58809 5.6058 7.16667 6.66667 7.16667ZM25.3333 25.8333H6.66667C5.6058 25.8333 4.58838 25.4119 3.83824 24.6618C3.08809 23.9116 2.66667 22.8942 2.66667 21.8333V13.8333H29.3333V21.8333C29.3333 22.8942 28.9119 23.9116 28.1618 24.6618C27.4116 25.4119 26.3942 25.8333 25.3333 25.8333Z" fill="#4F4F4F"/>
</g>
<defs>
<clipPath id="clip0_1_425">
<rect width="32" height="32" fill="white" transform="translate(0 0.5)"/>
</clipPath>
</defs>
</svg>
