<svg width="20" height="33" viewBox="0 0 20 33" fill="none" xmlns="http://www.w3.org/2000/svg">
<path d="M12.576 5.83333C13.6606 5.83439 14.7005 6.26571 15.4674 7.03263C16.2343 7.79955 16.6656 8.83941 16.6667 9.924C16.6667 10.2776 16.8072 10.6168 17.0572 10.8668C17.3073 11.1169 17.6464 11.2573 18 11.2573C18.3537 11.2573 18.6928 11.1169 18.9428 10.8668C19.1929 10.6168 19.3334 10.2776 19.3334 9.924V9.83333C19.3334 9.808 19.3334 9.78533 19.3334 9.76C19.2889 7.99697 18.5575 6.32104 17.2953 5.08941C16.033 3.85777 14.3396 3.16784 12.576 3.16667H11.3334V1.83333C11.3334 1.47971 11.1929 1.14057 10.9428 0.890524C10.6928 0.640476 10.3536 0.5 10 0.5C9.6464 0.5 9.30726 0.640476 9.05722 0.890524C8.80717 1.14057 8.66669 1.47971 8.66669 1.83333V3.16667H7.42402C5.82045 3.16838 4.26974 3.74031 3.04908 4.78024C1.82842 5.82016 1.01737 7.2603 0.760891 8.84323C0.504416 10.4262 0.819235 12.0487 1.64908 13.4209C2.47892 14.793 3.7697 15.8254 5.29069 16.3333L8.66669 17.46V27.1667H7.42402C6.33944 27.1656 5.29957 26.7343 4.53265 25.9674C3.76573 25.2004 3.33441 24.1606 3.33335 23.076C3.33335 22.7224 3.19288 22.3832 2.94283 22.1332C2.69278 21.8831 2.35364 21.7427 2.00002 21.7427C1.6464 21.7427 1.30726 21.8831 1.05721 22.1332C0.807163 22.3832 0.666687 22.7224 0.666687 23.076V23.1667C0.666687 23.192 0.666687 23.2147 0.666687 23.24C0.711185 25.003 1.4425 26.679 2.70477 27.9106C3.96704 29.1422 5.66043 29.8321 7.42402 29.8333H8.66669V31.1667C8.66669 31.5203 8.80717 31.8594 9.05722 32.1095C9.30726 32.3595 9.6464 32.5 10 32.5C10.3536 32.5 10.6928 32.3595 10.9428 32.1095C11.1929 31.8594 11.3334 31.5203 11.3334 31.1667V29.8333H12.576C14.1796 29.8316 15.7303 29.2597 16.951 28.2198C18.1716 27.1798 18.9827 25.7397 19.2392 24.1568C19.4956 22.5738 19.1808 20.9513 18.351 19.5791C17.5211 18.207 16.2304 17.1746 14.7094 16.6667L11.3334 15.54V5.83333H12.576ZM13.8694 19.1947C14.7913 19.5015 15.5738 20.1265 16.077 20.9577C16.5801 21.7888 16.771 22.772 16.6154 23.7311C16.4598 24.6902 15.9679 25.5625 15.2278 26.192C14.4877 26.8215 13.5476 27.167 12.576 27.1667H11.3334V18.3493L13.8694 19.1947ZM8.66669 14.6507L6.13336 13.8053C5.21168 13.4986 4.42924 12.8738 3.92607 12.0429C3.4229 11.212 3.23184 10.2291 3.38709 9.27023C3.54234 8.31133 4.03375 7.43896 4.7734 6.80926C5.51304 6.17955 6.45263 5.83361 7.42402 5.83333H8.66669V14.6507Z" fill="#F05830"/>
</svg>
