<svg width="32" height="33" viewBox="0 0 32 33" fill="none" xmlns="http://www.w3.org/2000/svg">
<path d="M8.62038 30.2124C8.32893 30.2123 8.04554 30.1168 7.81358 29.9403C7.58161 29.7639 7.41385 29.5163 7.33596 29.2354C7.25808 28.9546 7.27435 28.6559 7.38231 28.3852C7.49026 28.1145 7.68394 27.8866 7.93371 27.7364C12.6577 24.8991 12.6577 18.8058 12.6577 15.1658C12.6577 14.1049 13.0791 13.0875 13.8293 12.3373C14.5794 11.5872 15.5968 11.1658 16.6577 11.1658C17.7186 11.1658 18.736 11.5872 19.4861 12.3373C20.2363 13.0875 20.6577 14.1049 20.6577 15.1658C20.6577 15.5194 20.5172 15.8585 20.2672 16.1086C20.0171 16.3586 19.678 16.4991 19.3244 16.4991C18.9708 16.4991 18.6316 16.3586 18.3816 16.1086C18.1315 15.8585 17.991 15.5194 17.991 15.1658C17.991 14.8121 17.8506 14.473 17.6005 14.223C17.3505 13.9729 17.0113 13.8324 16.6577 13.8324C16.3041 13.8324 15.965 13.9729 15.7149 14.223C15.4649 14.473 15.3244 14.8121 15.3244 15.1658C15.3244 19.0951 15.3244 26.4111 9.30571 30.0231C9.09862 30.1471 8.86175 30.2125 8.62038 30.2124ZM15.2377 32.1071C18.2804 29.0404 20.0577 24.7284 20.519 19.2791C20.5346 19.1043 20.5155 18.9281 20.4628 18.7607C20.4101 18.5933 20.3249 18.438 20.2121 18.3036C20.0992 18.1692 19.961 18.0584 19.8052 17.9775C19.6494 17.8967 19.4792 17.8474 19.3044 17.8324C19.1294 17.8145 18.9526 17.8319 18.7846 17.8838C18.6165 17.9356 18.4605 18.0207 18.3261 18.134C18.1916 18.2474 18.0813 18.3866 18.0017 18.5435C17.9222 18.7003 17.875 18.8716 17.863 19.0471C17.4484 23.9231 15.971 27.5804 13.3457 30.2218C13.0964 30.4727 12.957 30.8123 12.9581 31.166C12.9592 31.5197 13.1008 31.8585 13.3517 32.1078C13.6026 32.3571 13.9423 32.4965 14.296 32.4954C14.6496 32.4942 14.9884 32.3527 15.2377 32.1018V32.1071ZM22.171 31.8591C22.9798 30.5153 23.6533 29.0945 24.1817 27.6178C24.2922 27.2875 24.269 26.9271 24.1172 26.6137C23.9654 26.3002 23.697 26.0586 23.3693 25.9405C23.0417 25.8224 22.6809 25.8372 22.364 25.9817C22.0471 26.1262 21.7994 26.389 21.6737 26.7138C21.2043 28.0232 20.6067 29.2831 19.8897 30.4751C19.7988 30.6249 19.7384 30.7911 19.7117 30.9643C19.6851 31.1375 19.6928 31.3142 19.7345 31.4844C19.7761 31.6545 19.8509 31.8148 19.9545 31.9561C20.0582 32.0974 20.1886 32.2169 20.3384 32.3078C20.6409 32.4913 21.0039 32.5471 21.3476 32.463C21.5178 32.4213 21.6781 32.3465 21.8194 32.2429C21.9607 32.1393 22.0802 32.0089 22.171 31.8591ZM25.3244 23.4204C25.8183 20.6976 26.0417 17.9326 25.991 15.1658C25.9898 13.2768 25.4154 11.4327 24.3438 9.87717C23.2722 8.32162 21.7538 7.12782 19.9893 6.45355C18.2248 5.77927 16.2973 5.65626 14.4614 6.10077C12.6255 6.54527 10.9677 7.53637 9.70705 8.94309C9.58427 9.07243 9.48869 9.22508 9.42596 9.39201C9.36322 9.55895 9.33462 9.73677 9.34183 9.91495C9.34904 10.0931 9.39192 10.2681 9.46793 10.4294C9.54394 10.5907 9.65154 10.7351 9.78437 10.8541C9.91719 10.9731 10.0725 11.0643 10.2412 11.1222C10.4099 11.1801 10.5884 11.2035 10.7663 11.1912C10.9443 11.1788 11.1179 11.1309 11.2769 11.0503C11.436 10.9697 11.5773 10.858 11.6924 10.7218C12.5928 9.7168 13.7769 9.0087 15.0883 8.69105C16.3996 8.3734 17.7765 8.46115 19.037 8.9427C20.2974 9.42425 21.3821 10.2769 22.1476 11.3881C22.9131 12.4992 23.3234 13.8165 23.3244 15.1658C23.3736 17.7615 23.1672 20.3558 22.7084 22.9111C22.641 23.258 22.7142 23.6174 22.9117 23.9104C23.1092 24.2034 23.4149 24.406 23.7617 24.4738C23.8464 24.4907 23.9326 24.4992 24.019 24.4991C24.3279 24.4983 24.6269 24.3903 24.8649 24.1936C25.103 23.9969 25.2654 23.7236 25.3244 23.4204ZM9.99105 15.1658C9.99066 14.7936 10.0214 14.4221 10.083 14.0551C10.1229 13.8784 10.1263 13.6955 10.093 13.5174C10.0598 13.3394 9.99068 13.17 9.88983 13.0196C9.78898 12.8691 9.65854 12.7408 9.50647 12.6424C9.35439 12.5441 9.18388 12.4777 9.00531 12.4474C8.82675 12.4171 8.64389 12.4236 8.46789 12.4663C8.29189 12.509 8.12643 12.5871 7.98161 12.6959C7.8368 12.8046 7.71566 12.9418 7.62558 13.0989C7.53551 13.256 7.47839 13.4298 7.45771 13.6098C7.3697 14.1238 7.3251 14.6443 7.32438 15.1658C7.32438 21.3591 5.52971 24.4991 1.99105 24.4991C1.63743 24.4991 1.29829 24.6396 1.04824 24.8896C0.798191 25.1397 0.657715 25.4788 0.657715 25.8324C0.657715 26.1861 0.798191 26.5252 1.04824 26.7752C1.29829 27.0253 1.63743 27.1658 1.99105 27.1658C7.14971 27.1658 9.99105 22.8991 9.99105 15.1658ZM28.2577 31.7178C30.452 26.4833 31.4977 20.8389 31.3244 15.1658C31.3305 12.951 30.8288 10.7643 29.8577 8.77376C29.7811 8.61617 29.6742 8.47522 29.5431 8.35894C29.4121 8.24267 29.2594 8.15335 29.0938 8.09609C28.9282 8.03882 28.7529 8.01474 28.578 8.0252C28.4031 8.03567 28.232 8.08049 28.0744 8.15709C27.9168 8.2337 27.7758 8.34059 27.6596 8.47167C27.5433 8.60275 27.454 8.75545 27.3967 8.92104C27.3394 9.08664 27.3154 9.2619 27.3258 9.4368C27.3363 9.61171 27.3811 9.78284 27.4577 9.94043C28.2511 11.5679 28.6616 13.3552 28.6577 15.1658C28.8255 20.4574 27.8623 25.724 25.8324 30.6138C25.7601 30.7734 25.72 30.9458 25.7144 31.121C25.7088 31.2961 25.7378 31.4707 25.7997 31.6346C25.8616 31.7986 25.9553 31.9488 26.0753 32.0765C26.1953 32.2042 26.3393 32.3071 26.499 32.3791C26.6717 32.4585 26.8596 32.4995 27.0497 32.4991C27.3047 32.498 27.554 32.4238 27.7681 32.2853C27.9822 32.1469 28.1521 31.9499 28.2577 31.7178ZM4.65771 19.1658V15.1658C4.66124 11.9842 5.92666 8.93405 8.17633 6.68438C10.426 4.4347 13.4762 3.16929 16.6577 3.16576C19.2556 3.1571 21.7846 4.00013 23.8577 5.56576C24.1406 5.77793 24.4962 5.86903 24.8463 5.81902C25.1963 5.76901 25.5122 5.58199 25.7244 5.29909C25.9365 5.01619 26.0277 4.6606 25.9776 4.31053C25.9276 3.96046 25.7406 3.6446 25.4577 3.43243C22.9235 1.51965 19.8327 0.489377 16.6577 0.499092C12.7693 0.503679 9.04142 2.05039 6.29188 4.79993C3.54234 7.54947 1.99564 11.2773 1.99105 15.1658V19.1658C1.99105 19.5194 2.13152 19.8585 2.38157 20.1086C2.63162 20.3586 2.97076 20.4991 3.32438 20.4991C3.678 20.4991 4.01714 20.3586 4.26719 20.1086C4.51724 19.8585 4.65771 19.5194 4.65771 19.1658Z" fill="#EB5757"/>
</svg>
