<svg width="32" height="33" viewBox="0 0 32 33" fill="none" xmlns="http://www.w3.org/2000/svg">
<path d="M32 31.1667C32 31.5204 31.8596 31.8595 31.6095 32.1096C31.3595 32.3596 31.0203 32.5001 30.6667 32.5001H1.33338C0.979754 32.5001 0.640616 32.3596 0.390567 32.1096C0.140519 31.8595 4.30043e-05 31.5204 4.30043e-05 31.1667C4.30043e-05 30.8131 0.140519 30.474 0.390567 30.2239C0.640616 29.9739 0.979754 29.8334 1.33338 29.8334H30.6667C31.0203 29.8334 31.3595 29.9739 31.6095 30.2239C31.8596 30.474 32 30.8131 32 31.1667ZM0.388043 11.9027C0.100739 11.3698 -0.0323641 10.7674 0.00367024 10.1631C0.0397046 9.55873 0.243451 8.97639 0.592043 8.48141C1.16172 7.64556 1.92464 6.95949 2.81604 6.48141L12.8174 1.27607C13.8004 0.764915 14.8921 0.498047 16 0.498047C17.108 0.498047 18.1997 0.764915 19.1827 1.27607L29.1827 6.48541C30.0741 6.96349 30.837 7.64956 31.4067 8.48541C31.7553 8.98039 31.959 9.56273 31.9951 10.1671C32.0311 10.7714 31.898 11.3738 31.6107 11.9067C31.3014 12.4918 30.8375 12.9809 30.2695 13.3206C29.7015 13.6603 29.0512 13.8377 28.3894 13.8334H28V24.5001H29.3334C29.687 24.5001 30.0261 24.6406 30.2762 24.8906C30.5262 25.1406 30.6667 25.4798 30.6667 25.8334C30.6667 26.187 30.5262 26.5262 30.2762 26.7762C30.0261 27.0263 29.687 27.1667 29.3334 27.1667H2.66671C2.31309 27.1667 1.97395 27.0263 1.7239 26.7762C1.47385 26.5262 1.33338 26.187 1.33338 25.8334C1.33338 25.4798 1.47385 25.1406 1.7239 24.8906C1.97395 24.6406 2.31309 24.5001 2.66671 24.5001H4.00004V13.8334H3.61071C2.94825 13.8375 2.29738 13.6597 1.72909 13.3192C1.16081 12.9788 0.696921 12.4888 0.388043 11.9027ZM6.66671 24.5001H10.6667V13.8334H6.66671V24.5001ZM13.3334 13.8334V24.5001H18.6667V13.8334H13.3334ZM25.3334 13.8334H21.3334V24.5001H25.3334V13.8334ZM2.75071 10.6667C2.83437 10.821 2.95886 10.9492 3.11055 11.0374C3.26224 11.1256 3.43528 11.1703 3.61071 11.1667H28.3894C28.5648 11.1703 28.7378 11.1256 28.8895 11.0374C29.0412 10.9492 29.1657 10.821 29.2494 10.6667C29.3103 10.5648 29.3398 10.4472 29.3341 10.3286C29.3284 10.21 29.2878 10.0957 29.2174 10.0001C28.8943 9.51996 28.4603 9.12479 27.952 8.84807L17.952 3.63874C17.3494 3.32597 16.6804 3.1627 16.0014 3.1627C15.3224 3.1627 14.6534 3.32597 14.0507 3.63874L4.05071 8.84807C3.54269 9.12569 3.10875 9.52122 2.78538 10.0014C2.71483 10.0966 2.67391 10.2105 2.66775 10.3288C2.66158 10.4472 2.69044 10.5647 2.75071 10.6667Z" fill="#236E57"/>
</svg>
