<svg width="32" height="33" viewBox="0 0 32 33" fill="none" xmlns="http://www.w3.org/2000/svg">
<g clip-path="url(#clip0_1_416)">
<path d="M24.7747 3.35329L16.4214 0.567955C16.1478 0.47686 15.8522 0.47686 15.5787 0.567955L7.22536 3.35329C5.89723 3.79446 4.74191 4.64296 3.92355 5.77823C3.10519 6.9135 2.6654 8.2778 2.66669 9.67728V16.4999C2.66669 26.5839 14.9334 32.1533 15.4587 32.3853C15.6291 32.461 15.8135 32.5001 16 32.5001C16.1865 32.5001 16.3709 32.461 16.5414 32.3853C17.0667 32.1533 29.3333 26.5839 29.3333 16.4999V9.67728C29.3346 8.2778 28.8949 6.9135 28.0765 5.77823C27.2581 4.64296 26.1028 3.79446 24.7747 3.35329ZM26.6667 16.4999C26.6667 23.7733 18.2414 28.5439 16 29.6853C13.756 28.5479 5.33336 23.7919 5.33336 16.4999V9.67728C5.33343 8.83765 5.59772 8.01934 6.08878 7.33827C6.57983 6.65721 7.27275 6.14794 8.06935 5.88262L16 3.23862L23.9307 5.88262C24.7273 6.14794 25.4202 6.65721 25.9113 7.33827C26.4023 8.01934 26.6666 8.83765 26.6667 9.67728V16.4999Z" fill="url(#paint0_linear_1_416)"/>
<path d="M20.4 11.5666L14.816 17.1666L11.824 14.0466C11.7039 13.9154 11.5588 13.8094 11.3971 13.7351C11.2355 13.6608 11.0606 13.6196 10.8828 13.6139C10.705 13.6082 10.5278 13.6381 10.3617 13.702C10.1957 13.7658 10.044 13.8622 9.91582 13.9855C9.78759 14.1089 9.68534 14.2566 9.6151 14.4201C9.54485 14.5835 9.50803 14.7594 9.50681 14.9373C9.50558 15.1152 9.53997 15.2916 9.60796 15.456C9.67594 15.6204 9.77614 15.7696 9.90266 15.8946L12.9773 19.0946C13.2066 19.3423 13.4838 19.5409 13.792 19.6784C14.1003 19.8159 14.4332 19.8895 14.7707 19.8946H14.8147C15.1454 19.8957 15.4731 19.8311 15.7786 19.7045C16.0842 19.578 16.3616 19.392 16.5947 19.1573L22.2907 13.4613C22.4151 13.3372 22.5138 13.1897 22.5812 13.0274C22.6487 12.8651 22.6835 12.6911 22.6836 12.5154C22.6838 12.3396 22.6494 12.1656 22.5823 12.0031C22.5152 11.8407 22.4168 11.6931 22.2927 11.5686C22.1685 11.4442 22.0211 11.3455 21.8588 11.2781C21.6965 11.2106 21.5225 11.1758 21.3467 11.1757C21.171 11.1755 20.9969 11.2099 20.8345 11.277C20.672 11.3441 20.5244 11.4425 20.4 11.5666Z" fill="url(#paint1_linear_1_416)"/>
</g>
<defs>
<linearGradient id="paint0_linear_1_416" x1="26.3466" y1="24.1596" x2="1.81057" y2="18.5775" gradientUnits="userSpaceOnUse">
<stop stop-color="#0C0059"/>
<stop offset="0.47069" stop-color="#15096B"/>
<stop offset="1" stop-color="#2C2289"/>
</linearGradient>
<linearGradient id="paint1_linear_1_416" x1="21.2078" y1="17.6222" x2="10.3112" y2="13.1263" gradientUnits="userSpaceOnUse">
<stop stop-color="#0C0059"/>
<stop offset="0.47069" stop-color="#15096B"/>
<stop offset="1" stop-color="#2C2289"/>
</linearGradient>
<clipPath id="clip0_1_416">
<rect width="32" height="32" fill="white" transform="translate(0 0.5)"/>
</clipPath>
</defs>
</svg>
